<svg width="135" height="28" viewBox="0 0 135 28" xmlns="http://www.w3.org/2000/svg"><g fill="none" fill-rule="evenodd"><path d="M12.996 11.47H8.284v9.12c0 2.432 1.596 2.394 4.712 2.242v3.686c-6.308.76-8.816-.988-8.816-5.928v-9.12H.684V7.518H4.18V2.414l4.104-1.216v6.32h4.712v3.952zm25.286-3.692h4.332l-5.966 19H32.62l-3.952-12.806-3.99 12.806H20.65l-5.966-19h4.332l3.686 13.11 3.99-13.11h3.914l3.952 13.11 3.724-13.11z" fill="#64748B"/><path d="M43 26.811l3.182-19.09h3.716l-3.182 19.09H43zm5.804-22.074c-1.28 0-2.299-.994-2.237-2.212C46.617 1.295 47.723.3 49.016.3c1.28 0 2.299.994 2.237 2.225-.05 1.218-1.156 2.212-2.449 2.212zm1.207 22.074l4.226-25.455h3.716L56.4 10.815h.224c.845-1.18 2.498-3.343 6.04-3.343 4.612 0 7.396 3.641 6.377 9.83-1.02 6.178-4.997 9.882-9.62 9.882-3.48 0-4.475-2.126-4.972-3.344h-.31l-.498 2.971h-3.629zm5.233-9.545c-.647 4.014.683 6.748 3.877 6.748 3.331 0 5.519-2.92 6.165-6.748.597-3.791-.596-6.638-3.952-6.638-3.244 0-5.444 2.648-6.09 6.638zM69.91 26.81l4.226-25.455h3.716l-1.554 9.459h.224c.845-1.18 2.498-3.343 6.04-3.343 4.612 0 7.396 3.641 6.377 9.83-1.02 6.178-4.997 9.882-9.62 9.882-3.48 0-4.475-2.126-4.972-3.344h-.31l-.498 2.971h-3.63zm5.232-9.545c-.646 4.014.684 6.748 3.878 6.748 3.331 0 5.519-2.92 6.165-6.748.597-3.791-.597-6.638-3.952-6.638-3.244 0-5.444 2.648-6.09 6.638zm14.668 9.545l4.226-25.455h3.716l-1.554 9.459h.224c.845-1.18 2.498-3.343 6.04-3.343 4.612 0 7.396 3.641 6.376 9.83-1.019 6.178-4.996 9.882-9.62 9.882-3.48 0-4.474-2.126-4.971-3.344h-.31l-.498 2.971h-3.63zm5.232-9.545c-.646 4.014.684 6.748 3.878 6.748 3.331 0 5.519-2.92 6.165-6.748.597-3.791-.597-6.638-3.952-6.638-3.244 0-5.444 2.648-6.09 6.638zm22.311-15.91l-4.225 25.455h-3.717l4.226-25.455h3.716zm6.95 25.84c-5.631 0-8.44-3.878-7.446-9.806.97-5.867 5.146-9.918 10.465-9.918 4.338 0 8.017 2.697 6.861 9.595l-.211 1.317h-13.597c-.647 4.151 1.118 5.742 4.474 5.742 2.163 0 3.878-.92 4.86-2.722l3.405.634c-1.367 3.108-4.636 5.158-8.812 5.158zM120.847 15.6h9.906c.497-2.92-1.02-5.059-3.915-5.059-2.896 0-5.444 2.56-5.991 5.06z" fill="#252F3F" fill-rule="nonzero"/></g></svg>